<svg viewBox="0 0 200 200" xmlns="http://www.w3.org/2000/svg" xmlns:xlink="http://www.w3.org/1999/xlink"><clipPath id="a"><path d="m19.53 0h160.94c10.79 0 19.53 8.74 19.53 19.53v160.94c0 10.79-8.74 19.53-19.53 19.53h-160.94c-10.79 0-19.53-8.74-19.53-19.53v-160.94c0-10.79 8.74-19.53 19.53-19.53z"/></clipPath><path d="m19.53 0h160.94c10.79 0 19.53 8.74 19.53 19.53v160.94c0 10.79-8.74 19.53-19.53 19.53h-160.94c-10.79 0-19.53-8.74-19.53-19.53v-160.94c0-10.79 8.74-19.53 19.53-19.53z" fill="#cd495f"/><g clip-path="url(#a)"><path d="m167.33 245-98.47-108.41 68.01-74.37 104.74 115.31z" fill="#ab3043"/></g><ellipse cx="107" cy="91" fill="#ab3043" rx="32" ry="37"/><path d="m120.87 95.68v16.2c0 .9-.75 1.62-1.65 1.61-.89 0-1.6-.73-1.61-1.61v-16.2c0-1.85-1.5-3.34-3.34-3.34h-11.23c-3.65 0-6.6-2.96-6.6-6.6v-16.77l-3.89 4.01c-.63.64-1.67.65-2.31.01-.63-.62-.65-1.64-.04-2.28l6.7-6.89c.31-.32.73-.5 1.17-.49.44 0 .86.18 1.17.49l6.7 6.89c.63.65.61 1.68-.04 2.31s-1.68.61-2.31-.04l-3.89-4.02v16.77c0 1.85 1.5 3.34 3.34 3.35h11.23c3.64 0 6.6 2.96 6.6 6.6zm-.57-27.78c-3.08 0-5.57 2.5-5.57 5.58s2.5 5.57 5.58 5.57 5.57-2.5 5.57-5.58-2.5-5.57-5.58-5.57zm0 7.89c1.28 0 2.32-1.04 2.32-2.32s-1.04-2.32-2.32-2.32-2.32 1.04-2.32 2.32c0 1.28 1.04 2.31 2.32 2.32zm-16.92 27.83c.64-.63.65-1.66.02-2.3s-1.66-.65-2.3-.02c0 0-.02.02-.02.02l-3.45 3.43-3.43-3.44c-.64-.63-1.68-.62-2.31.02-.62.63-.62 1.65 0 2.28l3.45 3.44-3.45 3.43c-.64.63-.64 1.66 0 2.29.31.31.72.48 1.16.48.43 0 .85-.17 1.15-.48l3.43-3.43 3.45 3.43c.3.31.72.48 1.15.48s.85-.17 1.16-.48c.64-.63.64-1.66 0-2.29l-3.45-3.43 3.45-3.44zm6.9-53.98c-7.03-.59-14.1.46-20.66 3.06-6.74 2.65-12.71 6.96-17.36 12.52-7 8.46-10.45 19.31-9.62 30.27l.04.53-9.89 15.96c-.47.77-.23 1.77.53 2.25.13.08.27.14.41.18l12.51 3.53v11.75c0 5.78 4.69 10.47 10.48 10.48h19.37v5.14c0 2.88 2.34 5.2 5.22 5.2h32.25c2.87 0 5.2-2.33 5.21-5.21v-27.6c-.03-2.16.62-4.28 1.85-6.05 8.55-12.61 9.15-29 1.54-42.2-6.73-11.68-18.48-18.67-31.86-19.8z" fill="#fd5" fill-rule="evenodd"/><g fill="#fc0"><path d="m120.31 71.16c-1.28 0-2.32 1.04-2.32 2.32s1.04 2.31 2.32 2.32c1.28 0 2.32-1.04 2.32-2.32s-1.04-2.32-2.32-2.32z"/><path d="m142.14 69.44c-6.73-11.68-18.48-18.67-31.86-19.8-1.71-.14-3.43-.18-5.13-.14v20.39l.78.8c.63.65.61 1.68-.04 2.31-.21.21-.47.34-.75.41v15.66h9.12c3.64 0 6.6 2.96 6.6 6.6v16.2c0 .9-.75 1.62-1.65 1.61-.89 0-1.6-.73-1.61-1.61v-16.2c0-1.85-1.5-3.34-3.34-3.34h-9.12v58.18h28.4c2.87 0 5.2-2.33 5.21-5.21v-27.6c-.03-2.16.62-4.28 1.85-6.05 8.55-12.61 9.15-29 1.54-42.2zm-21.83 9.61c-3.08 0-5.58-2.49-5.58-5.57s2.49-5.58 5.57-5.58 5.57 2.5 5.58 5.57c0 3.08-2.5 5.58-5.57 5.58z"/></g></svg>