<svg viewBox="0 0 200 200" xmlns="http://www.w3.org/2000/svg" xmlns:xlink="http://www.w3.org/1999/xlink"><clipPath id="a"><path d="m19.53 0h160.94c10.79 0 19.53 8.74 19.53 19.53v160.94c0 10.79-8.74 19.53-19.53 19.53h-160.94c-10.79 0-19.53-8.74-19.53-19.53v-160.94c0-10.79 8.74-19.53 19.53-19.53z"/></clipPath><path d="m19.53 0h160.94c10.79 0 19.53 8.74 19.53 19.53v160.94c0 10.79-8.74 19.53-19.53 19.53h-160.94c-10.79 0-19.53-8.74-19.53-19.53v-160.94c0-10.79 8.74-19.53 19.53-19.53z" fill="#7a3eb4"/><g clip-path="url(#a)"><path d="m139.1 265.32-105.71-116.39 100.28-101.59 110.94 122.15z" fill="#613393"/></g><path d="m83.42 148.32h-50.25v-101.02h50.26l25.13 50.51-25.13 50.51z" fill="#00ed89"/><path d="m83.42 47.3h50.26v101.03h-50.26z" fill="#00cb76"/><path d="m73.34 81.53 4.86-1.83-8.58-22.74h-4.38s-8.66 22.73-8.66 22.73l4.85 1.85 2.05-5.39h7.82l2.03 5.39zm-7.88-10.58 1.95-5.12 1.93 5.12z" fill="#525264"/><path d="m53.66 62.06v-5.19h-13.08v23.91h13.08v-5.19h-7.89v-4.17h7.31v-5.19h-7.31v-4.17z" fill="#525264"/><path d="m120.1 58.58-4.35-2.83-5.23 8.04-5.28-8.08-4.35 2.84 7.03 10.77-.03 11.47h5.19s.03-11.47.03-11.47l6.98-10.73z" fill="#454553"/><path d="m71.24 141c-3.22 0-6.24-1.3-8.29-3.56l-1.7-1.87 3.75-3.4 1.7 1.87c1.08 1.19 2.78 1.9 4.54 1.9 1.66 0 2.83-.97 2.99-1.91.22-1.23-1.68-2.04-2.27-2.25-2.86-1.06-5.41-2.19-5.51-2.24-.12-.05-.24-.12-.35-.19-2.02-1.31-3.06-3.62-2.71-6.02.37-2.55 2.23-4.62 4.85-5.41 5.15-1.55 9.38 1.94 9.56 2.09l1.94 1.63-3.25 3.87-1.92-1.62c-.1-.08-2.4-1.87-4.86-1.13-1.06.32-1.27 1.01-1.31 1.29-.03.19-.04.64.35.97.68.3 2.75 1.19 4.97 2.01 4.78 1.76 5.97 5.23 5.5 7.89-.63 3.52-3.98 6.07-7.97 6.07z" fill="#525264"/><path d="m49.4 141h-.01c-1.74 0-3.33-.46-4.75-1.37-2.69-1.72-4.06-4.04-4.06-6.9v-15.2h5.06v15.2c0 .95.29 1.73 1.72 2.64.6.38 1.27.57 2.04.57.71 0 1.32-.14 1.89-.43 1.83-.92 2.08-1.93 2.08-2.8v-15.19h5.06v15.19c0 2.22-.84 5.3-4.86 7.32-1.27.64-2.68.97-4.17.97z" fill="#525264"/><path d="m96.17 122.67v-5.06h-12.75v23.3h12.75v-5.06h-7.69v-4.07h7.12v-5.06h-7.12v-4.07h7.69z" fill="#454553"/><path d="m55.8 87.38h-15.23v5.06h5.06v18.41h5.06v-18.41h5.11z" fill="#525264"/><path d="m69.43 110.85c-6.47 0-11.74-5.26-11.74-11.74s5.26-11.74 11.74-11.74 11.74 5.26 11.74 11.74c0 6.47-5.26 11.74-11.74 11.74zm0-18.41c-3.68 0-6.68 3-6.68 6.68s3 6.68 6.68 6.68 6.68-3 6.68-6.68-3-6.68-6.68-6.68z" fill="#525264"/><path d="m133.68 86.4c-18.31 0-33.15 14.84-33.15 33.15 0 6.72 2 12.97 5.44 18.2l12.38.71 4.88 12.56c3.29 1.09 6.8 1.68 10.45 1.68l10.24-33.15z" fill="#fd5"/><path d="m166.83 119.55c0 18.31-14.84 33.15-33.15 33.15v-66.3c18.31 0 33.15 14.84 33.15 33.15z" fill="#fc0"/><path d="m133.68 110.03-6.35 6.35c-1.17-.67-2.53-1.06-3.99-1.06v-4.92c0-3.41-2.77-6.18-6.18-6.18h-1.84v19.13c0 1.45.39 2.81 1.06 3.99l-10.41 10.41c4.06 6.17 10.12 10.9 17.26 13.27l8.1-8.1h.39c.66 0 1.32-.04 1.97-.1l5.98-15.93-5.98-16.86z" fill="#fff"/><path d="m147.49 125.48 1.12-1.12c1.36-1.36 1.43-3.6.07-4.96-1.31-1.31-3.39-1.36-4.76-.15l1.72-1.72c1.36-1.36 1.36-3.55 0-4.91-1.13-1.13-2.86-1.32-4.18-.55l7.71-7.71c1.38-1.38 1.35-3.62-.06-4.96-1.36-1.3-3.52-1.28-4.85.05l-10.58 10.58v32.78c4.3-.45 8.35-2.36 11.44-5.45l6.28-6.28c1.36-1.36 1.36-3.55 0-4.91-1.05-1.06-2.62-1.29-3.9-.7z" fill="#e2e2eb"/><path d="m81.4 62.66c-.31 2.14.46 4.21 2.03 5.6l1.01-4.73-1.01-4.73c-1.09 1.02-1.81 2.37-2.03 3.87zm-2.19 12.55 1.74 1.92c.72.79 1.56 1.47 2.48 2.02l1.46-2.67-1.46-4.34-.38-.42-3.85 3.49z" fill="#525264"/><path d="m87.87 62.07c2.52-.76 4.88 1.07 4.98 1.16l1.97 1.66 3.34-3.97-1.99-1.67c-.18-.15-4.53-3.74-9.81-2.14-1.15.34-2.15.93-2.95 1.69v9.47c.23.21.49.4.75.58.11.07.23.14.36.2.11.05 2.72 1.21 5.66 2.29.6.22 2.55 1.05 2.33 2.31-.17.96-1.37 1.96-3.07 1.96-1.81 0-3.56-.73-4.66-1.95l-1.37-1.51v7.01c1.77 1.06 3.85 1.63 6.03 1.63 4.1 0 7.54-2.62 8.18-6.23.49-2.73-.74-6.29-5.64-8.09-2.28-.84-4.41-1.76-5.1-2.06-.4-.34-.38-.8-.36-1 .04-.29.26-1 1.34-1.32z" fill="#454553"/></svg>