<svg viewBox="0 0 200 200" xmlns="http://www.w3.org/2000/svg"><path d="m19.53-.18h160.94c10.79 0 19.53 8.74 19.53 19.53v160.94c0 10.79-8.74 19.53-19.53 19.53h-160.94c-10.79 0-19.53-8.74-19.53-19.53v-160.94c0-10.79 8.74-19.53 19.53-19.53z" fill="#3178c6"/><path d="m19.53-.18h160.94c10.79 0 19.53 8.74 19.53 19.53v160.94c0 10.79-8.74 19.53-19.53 19.53h-160.94c-10.79 0-19.53-8.74-19.53-19.53v-160.94c0-10.79 8.74-19.53 19.53-19.53z" fill="#3178c6"/><path d="m123.8 158.97v19.56c3.18 1.63 6.94 2.85 11.28 3.67s8.92 1.22 13.72 1.22c8.29 0 17.36-1.19 24.45-5.77 7.06-4.57 10.33-12.16 10.33-20.38 0-6.11-1.89-11.99-6.17-16.44-6.42-6.68-15.44-9.38-23.54-13.35-4.06-1.99-9.66-5.08-9.66-10.3 0-1.34.35-2.56 1.04-3.64 2.79-4.34 8.97-5.23 13.69-5.23 5.36 0 11.01 1.2 15.99 3.42 1.73.77 3.33 1.67 4.8 2.69v-18.27c-2.97-1.14-6.23-1.99-9.75-2.54s-7.57-.82-12.14-.82-9.05.5-13.21 1.5-7.81 2.56-10.97 4.67c-3.16 2.12-5.65 4.82-7.49 8.1-1.83 3.28-2.75 7.2-2.75 11.76 0 5.83 1.68 10.8 5.04 14.91s8.47 7.6 15.31 10.45c4.61 1.88 9.4 3.74 13.54 6.54 2.87 1.94 5.47 4.64 5.47 8.31 0 2.66-1.51 4.92-3.7 6.32-3.24 2.07-7.4 2.54-11.16 2.54-4.24 0-8.44-.74-12.59-2.23-4.16-1.49-8.01-3.72-11.55-6.69zm-32.87-48.18h25.09v-16.05h-69.93v16.05h24.96v71.45h19.87v-71.45z" fill="#fff" fill-rule="evenodd"/></svg>